# xmcd
#
# Track frame offsets: 
#        150
#        18036
#        33878
#        48119
#        62977
#        79090
#        95887
#        114116
#        127829
#        140928
#        158670
#        174899
#        192259
#        206883
#        222445
#
# Disc length: 3229 seconds
#
# Revision: 2
# Processed by: cddbd v1.5.2PL0 Copyright (c) Steve Scherf et al.
# Submitted via: ExactAudioCopyFreeDBPlugin 1.0
#
DISCID=c90c9b0f
DTITLE=Various Artist - Suomipoppia 14 [CD2)
DYEAR=2009
DGENRE=Pop
TTITLE0=Anna Abreu - Something About U
TTITLE1=Scandinavian Music Group - Näin Minä Vihellän Matkallani
TTITLE2=The Giant Leap - Beautiful Goodbye
TTITLE3=Petra - Kuka Mä Oon
TTITLE4=Kim Herold - Broken Hearts
TTITLE5=Movetron - Filminauha (Radio Edit.)
TTITLE6=Kotiteollisuus - Taivas Tippuu
TTITLE7=Aamupojat - Muuvit
TTITLE8=Traffic Island - Words In My Mouth
TTITLE9=Maria Lund - Valokuvia
TTITLE10=Disco - Mitä Rakkaus Saa Aikaan
TTITLE11=Sapattivuosi - Pelon Lait
TTITLE12=Palava - Kannan Sua (Radio Edit.)
TTITLE13=Clark Kent - In My Arms
TTITLE14=Uniklubi - Kukka
EXTD=
EXTT0=
EXTT1=
EXTT2=
EXTT3=
EXTT4=
EXTT5=
EXTT6=
EXTT7=
EXTT8=
EXTT9=
EXTT10=
EXTT11=
EXTT12=
EXTT13=
EXTT14=
PLAYORDER=
